<svg width="16" height="16" viewBox="0 0 16 16" fill="none" xmlns="http://www.w3.org/2000/svg">
<g clip-path="url(#clip0_30_512)">
<path d="M8 8.3125C7.41984 8.3125 6.86344 8.54297 6.4532 8.9532C6.04297 9.36344 5.8125 9.91984 5.8125 10.5C5.8125 11.0802 6.04297 11.6366 6.4532 12.0468C6.86344 12.457 7.41984 12.6875 8 12.6875C8.58016 12.6875 9.13656 12.457 9.5468 12.0468C9.95703 11.6366 10.1875 11.0802 10.1875 10.5C10.1875 9.91984 9.95703 9.36344 9.5468 8.9532C9.13656 8.54297 8.58016 8.3125 8 8.3125ZM7.0625 10.5C7.0625 10.2514 7.16127 10.0129 7.33709 9.83709C7.5129 9.66127 7.75136 9.5625 8 9.5625C8.24864 9.5625 8.4871 9.66127 8.66291 9.83709C8.83873 10.0129 8.9375 10.2514 8.9375 10.5C8.9375 10.7486 8.83873 10.9871 8.66291 11.1629C8.4871 11.3387 8.24864 11.4375 8 11.4375C7.75136 11.4375 7.5129 11.3387 7.33709 11.1629C7.16127 10.9871 7.0625 10.7486 7.0625 10.5Z" fill="black"/>
<path d="M11.4537 3.69751L9.46688 0.91188L2.16125 6.74813L1.75625 6.74376V6.75001H1.4375V14.25H14.5625V6.75001H13.9613L12.765 3.25063L11.4537 3.69751ZM12.6406 6.75001H6.37313L11.0412 5.15876L11.9925 4.85438L12.6406 6.75001ZM10.2188 4.11876L5.4 5.76126L9.21625 2.71251L10.2188 4.11876ZM2.6875 11.8556V9.14313C2.95136 9.05001 3.19103 8.89901 3.38894 8.70121C3.58685 8.5034 3.73798 8.26381 3.83125 8.00001H12.1687C12.2619 8.26393 12.413 8.50364 12.6109 8.70156C12.8089 8.89947 13.0486 9.05057 13.3125 9.14375V11.8563C13.0486 11.9494 12.8089 12.1005 12.6109 12.2985C12.413 12.4964 12.2619 12.7361 12.1687 13H3.8325C3.73886 12.7361 3.58748 12.4963 3.38939 12.2984C3.1913 12.1004 2.9515 11.9491 2.6875 11.8556Z" fill="black"/>
</g>
<defs>
<clipPath id="clip0_30_512">
<rect width="15" height="15" fill="white" transform="translate(0.5 0.5)"/>
</clipPath>
</defs>
</svg>
