<svg width="16" height="16" viewBox="0 0 16 16" fill="none" xmlns="http://www.w3.org/2000/svg">
<path d="M12.6874 6.12501C12.6874 5.98594 12.7287 5.85 12.8059 5.73437C12.8832 5.61874 12.993 5.52862 13.1215 5.4754C13.2499 5.42218 13.3913 5.40826 13.5277 5.43539C13.6641 5.46252 13.7894 5.52949 13.8877 5.62782C13.9861 5.72615 14.053 5.85144 14.0802 5.98783C14.1073 6.12423 14.0934 6.2656 14.0401 6.39408C13.9869 6.52256 13.8968 6.63237 13.7812 6.70963C13.6656 6.78689 13.5296 6.82813 13.3905 6.82813C13.2041 6.82813 13.0252 6.75405 12.8934 6.62219C12.7615 6.49033 12.6874 6.31149 12.6874 6.12501ZM11.9843 4.71876C12.1234 4.71876 12.2593 4.67752 12.3749 4.60026C12.4906 4.523 12.5807 4.41318 12.6339 4.2847C12.6871 4.15623 12.701 4.01485 12.6739 3.87846C12.6468 3.74206 12.5798 3.61678 12.4815 3.51845C12.3831 3.42011 12.2579 3.35315 12.1215 3.32602C11.9851 3.29889 11.8437 3.31281 11.7152 3.36603C11.5867 3.41925 11.4769 3.50937 11.3997 3.625C11.3224 3.74062 11.2812 3.87657 11.2812 4.01563C11.2812 4.20211 11.3552 4.38095 11.4871 4.51281C11.619 4.64468 11.7978 4.71876 11.9843 4.71876ZM13.6636 8.00001C13.5397 7.98979 13.4169 8.02917 13.3221 8.10949C13.2273 8.18981 13.1682 8.30449 13.1579 8.42833C13.074 9.40828 12.712 10.3439 12.1144 11.1251C11.5168 11.9063 10.7086 12.5005 9.78471 12.8379C8.86085 13.1753 7.85985 13.2418 6.89947 13.0296C5.9391 12.8174 5.05931 12.3353 4.36362 11.6401C3.66793 10.9448 3.18529 10.0653 2.97249 9.10511C2.75968 8.14486 2.82556 7.14382 3.16238 6.21975C3.4992 5.29568 4.09294 4.48703 4.87375 3.88896C5.65456 3.29088 6.58994 2.92826 7.56984 2.84376C7.6314 2.83868 7.69135 2.82152 7.74628 2.79328C7.80121 2.76503 7.85003 2.72624 7.88997 2.67912C7.92991 2.632 7.96017 2.57748 7.97904 2.51866C7.9979 2.45985 8.005 2.39789 7.99992 2.33633C7.99484 2.27478 7.97769 2.21482 7.94944 2.15989C7.92119 2.10497 7.8824 2.05614 7.83528 2.0162C7.78816 1.97627 7.73364 1.946 7.67482 1.92714C7.61601 1.90827 7.55405 1.90118 7.4925 1.90626C6.3347 2.00584 5.22943 2.43404 4.30672 3.14045C3.38401 3.84686 2.68225 4.80211 2.284 5.89381C1.88575 6.98551 1.80758 8.16825 2.05868 9.30287C2.30979 10.4375 2.87972 11.4768 3.70143 12.2985C4.52314 13.1202 5.56244 13.6901 6.69706 13.9412C7.83168 14.1923 9.01441 14.1142 10.1061 13.7159C11.1978 13.3177 12.1531 12.6159 12.8595 11.6932C13.5659 10.7705 13.9941 9.66522 14.0937 8.50743C14.099 8.44583 14.092 8.38379 14.0732 8.32489C14.0545 8.26598 14.0242 8.21138 13.9842 8.16422C13.9443 8.11705 13.8953 8.07826 13.8403 8.05008C13.7853 8.0219 13.7252 8.00488 13.6636 8.00001ZM7.99992 3.78126C8.83431 3.78126 9.64996 4.02868 10.3437 4.49224C11.0375 4.95581 11.5782 5.61468 11.8975 6.38556C12.2168 7.15644 12.3004 8.00469 12.1376 8.82304C11.9748 9.6414 11.573 10.3931 10.983 10.9831C10.393 11.5731 9.64131 11.9749 8.82296 12.1377C8.0046 12.3005 7.15635 12.2169 6.38547 11.8976C5.6146 11.5783 4.95572 11.0376 4.49216 10.3438C4.02859 9.65005 3.78117 8.83439 3.78117 8.00001C3.78241 6.8815 4.22728 5.80917 5.01818 5.01827C5.80908 4.22737 6.88142 3.7825 7.99992 3.78126ZM7.53117 8.00001C7.53117 8.12433 7.58056 8.24355 7.66846 8.33146C7.75637 8.41937 7.8756 8.46875 7.99992 8.46875H10.8124C10.9367 8.46875 11.056 8.41937 11.1439 8.33146C11.2318 8.24355 11.2812 8.12433 11.2812 8.00001C11.2812 7.87568 11.2318 7.75646 11.1439 7.66855C11.056 7.58064 10.9367 7.53126 10.8124 7.53126H8.46867V5.18751C8.46867 5.06319 8.41928 4.94396 8.33138 4.85605C8.24347 4.76814 8.12424 4.71876 7.99992 4.71876C7.8756 4.71876 7.75637 4.76814 7.66846 4.85605C7.58056 4.94396 7.53117 5.06319 7.53117 5.18751V8.00001ZM9.87492 3.31251C10.014 3.31251 10.1499 3.27127 10.2656 3.19401C10.3812 3.11675 10.4713 3.00693 10.5245 2.87845C10.5777 2.74998 10.5917 2.6086 10.5645 2.47221C10.5374 2.33581 10.4704 2.21053 10.3721 2.1122C10.2738 2.01386 10.1485 1.9469 10.0121 1.91977C9.8757 1.89264 9.73432 1.90656 9.60585 1.95978C9.47737 2.013 9.36755 2.10312 9.29029 2.21875C9.21303 2.33437 9.17179 2.47032 9.17179 2.60938C9.17179 2.79586 9.24587 2.9747 9.37774 3.10657C9.5096 3.23843 9.68844 3.31251 9.87492 3.31251Z" fill="black"/>
</svg>
