<svg width="11" height="11" viewBox="0 0 11 11" fill="none" xmlns="http://www.w3.org/2000/svg">
<path d="M9.79814 10.495H1.79314C1.58897 10.495 1.43814 10.4052 1.34064 10.2256C1.24314 10.0456 1.25543 9.87146 1.37751 9.70313L3.63001 6.53938C3.72043 6.40521 3.84022 6.30167 3.98939 6.22876C4.13855 6.15626 4.29314 6.12001 4.45314 6.12001H6.88439C6.94064 6.12001 6.99272 6.10813 7.04064 6.08438C7.08897 6.06021 7.13314 6.02813 7.17314 5.98813L9.91814 2.78126C10.0736 2.60251 10.2606 2.55459 10.4794 2.63751C10.6981 2.72042 10.8075 2.8798 10.8075 3.11563V9.48563C10.8075 9.76521 10.7092 10.0033 10.5125 10.2C10.3158 10.3967 10.0777 10.495 9.79814 10.495ZM3.05564 4.63001L1.01001 7.49626C0.961678 7.57001 0.896262 7.61188 0.813762 7.62188C0.731262 7.63188 0.653137 7.61292 0.579387 7.56501C0.505637 7.51709 0.463762 7.45188 0.453762 7.36938C0.443762 7.28688 0.46272 7.20855 0.510637 7.13438L2.44001 4.42813C2.53043 4.29355 2.65022 4.18938 2.79939 4.11563C2.94855 4.04188 3.10314 4.00501 3.26314 4.00501H5.88689L8.50251 0.943756C8.56084 0.87209 8.63126 0.835215 8.71376 0.833131C8.79668 0.830631 8.87376 0.858548 8.94501 0.916881C9.01626 0.975215 9.05501 1.04396 9.06126 1.12313C9.06793 1.20105 9.04189 1.27584 8.98314 1.34751L6.46439 4.27626C6.37355 4.39001 6.26272 4.47751 6.13189 4.53876C6.00147 4.59959 5.8598 4.63001 5.70689 4.63001H3.05564Z" fill="black"/>
</svg>
