<svg width="22" height="22" viewBox="0 0 22 22" fill="none" xmlns="http://www.w3.org/2000/svg">
<path fill-rule="evenodd" clip-rule="evenodd" d="M7.99999 3.5C8.16296 3.50003 8.32148 3.55315 8.45156 3.6513C8.58165 3.74945 8.67623 3.8873 8.72099 4.044L9.53399 6.89C9.70904 7.50292 10.0374 8.0611 10.4882 8.51183C10.9389 8.96255 11.4971 9.29095 12.11 9.466L14.956 10.279C15.1126 10.3239 15.2503 10.4185 15.3484 10.5486C15.4464 10.6786 15.4995 10.8371 15.4995 11C15.4995 11.1629 15.4464 11.3214 15.3484 11.4514C15.2503 11.5815 15.1126 11.6761 14.956 11.721L12.11 12.534C11.4971 12.7091 10.9389 13.0374 10.4882 13.4882C10.0374 13.9389 9.70904 14.4971 9.53399 15.11L8.72099 17.956C8.67613 18.1126 8.58151 18.2503 8.45143 18.3484C8.32135 18.4464 8.16289 18.4995 7.99999 18.4995C7.8371 18.4995 7.67863 18.4464 7.54855 18.3484C7.41847 18.2503 7.32385 18.1126 7.27899 17.956L6.46599 15.11C6.29094 14.4971 5.96255 13.9389 5.51182 13.4882C5.06109 13.0374 4.50291 12.7091 3.88999 12.534L1.04399 11.721C0.887398 11.6761 0.749665 11.5815 0.651616 11.4514C0.553567 11.3214 0.500534 11.1629 0.500534 11C0.500534 10.8371 0.553567 10.6786 0.651616 10.5486C0.749665 10.4185 0.887398 10.3239 1.04399 10.279L3.88999 9.466C4.50291 9.29095 5.06109 8.96255 5.51182 8.51183C5.96255 8.0611 6.29094 7.50292 6.46599 6.89L7.27899 4.044C7.32375 3.8873 7.41833 3.74945 7.54842 3.6513C7.67851 3.55315 7.83703 3.50003 7.99999 3.5ZM17 0.5C17.1673 0.499907 17.3299 0.555764 17.4618 0.658686C17.5937 0.761609 17.6874 0.905686 17.728 1.068L17.986 2.104C18.1019 2.56533 18.3407 2.98659 18.6771 3.32294C19.0134 3.65928 19.4347 3.89811 19.896 4.014L20.932 4.272C21.0946 4.31228 21.2391 4.40586 21.3423 4.5378C21.4456 4.66974 21.5017 4.83246 21.5017 5C21.5017 5.16754 21.4456 5.33026 21.3423 5.4622C21.2391 5.59414 21.0946 5.68772 20.932 5.728L19.896 5.986C19.4347 6.10189 19.0134 6.34072 18.6771 6.67706C18.3407 7.01341 18.1019 7.43467 17.986 7.896L17.728 8.932C17.6877 9.09463 17.5941 9.23908 17.4622 9.34233C17.3302 9.44558 17.1675 9.50168 17 9.50168C16.8325 9.50168 16.6697 9.44558 16.5378 9.34233C16.4059 9.23908 16.3123 9.09463 16.272 8.932L16.014 7.896C15.8981 7.43467 15.6593 7.01341 15.3229 6.67706C14.9866 6.34072 14.5653 6.10189 14.104 5.986L13.068 5.728C12.9054 5.68772 12.7609 5.59414 12.6577 5.4622C12.5544 5.33026 12.4983 5.16754 12.4983 5C12.4983 4.83246 12.5544 4.66974 12.6577 4.5378C12.7609 4.40586 12.9054 4.31228 13.068 4.272L14.104 4.014C14.5653 3.89811 14.9866 3.65928 15.3229 3.32294C15.6593 2.98659 15.8981 2.56533 16.014 2.104L16.272 1.068C16.3126 0.905686 16.4063 0.761609 16.5382 0.658686C16.6701 0.555764 16.8327 0.499907 17 0.5ZM15.5 14C15.6575 13.9999 15.8111 14.0494 15.9389 14.1415C16.0667 14.2336 16.1622 14.3636 16.212 14.513L16.606 15.696C16.756 16.143 17.106 16.495 17.554 16.644L18.737 17.039C18.886 17.089 19.0155 17.1845 19.1072 17.3121C19.1989 17.4397 19.2483 17.5929 19.2483 17.75C19.2483 17.9071 19.1989 18.0603 19.1072 18.1879C19.0155 18.3155 18.886 18.411 18.737 18.461L17.554 18.856C17.3333 18.9297 17.1327 19.0537 16.9682 19.2182C16.8037 19.3827 16.6797 19.5833 16.606 19.804L16.211 20.987C16.161 21.136 16.0654 21.2655 15.9379 21.3572C15.8103 21.4489 15.6571 21.4983 15.5 21.4983C15.3429 21.4983 15.1897 21.4489 15.0621 21.3572C14.9345 21.2655 14.839 21.136 14.789 20.987L14.394 19.804C14.3203 19.5833 14.1963 19.3827 14.0318 19.2182C13.8673 19.0537 13.6667 18.9297 13.446 18.856L12.263 18.461C12.114 18.411 11.9845 18.3155 11.8928 18.1879C11.8011 18.0603 11.7517 17.9071 11.7517 17.75C11.7517 17.5929 11.8011 17.4397 11.8928 17.3121C11.9845 17.1845 12.114 17.089 12.263 17.039L13.446 16.644C13.6667 16.5703 13.8673 16.4463 14.0318 16.2818C14.1963 16.1173 14.3203 15.9167 14.394 15.696L14.789 14.513C14.8387 14.3637 14.9341 14.2339 15.0617 14.1418C15.1893 14.0497 15.3426 14.0001 15.5 14Z" fill="#274312"/>
</svg>
