<svg width="30" height="30" viewBox="0 0 30 30" fill="none" xmlns="http://www.w3.org/2000/svg">
<path d="M10.1652 26.0281L9.9913 25.9672L9.8195 26.0337L2.0695 29.0337L2.06949 29.0337L2.0643 29.0358C1.66489 29.1955 1.33366 29.1521 1.00422 28.9103C0.65996 28.6576 0.5 28.3415 0.5 27.9167V4.58333C0.5 4.32609 0.571887 4.11309 0.712949 3.92551C0.857972 3.73266 1.05968 3.57882 1.33767 3.46997L9.99755 0.528882L19.8348 3.97193L20.0087 4.03279L20.1805 3.96628L27.9305 0.966284L27.9305 0.966313L27.9357 0.964238C28.3346 0.804658 28.6656 0.848224 28.9952 1.09093C29.3405 1.34529 29.5 1.66139 29.5 2.08333V25.4167C29.5 25.6746 29.4283 25.8879 29.2879 26.0755C29.1447 26.2671 28.9432 26.4208 28.6628 26.5299L20.0025 29.4711L10.1652 26.0281ZM18.1682 26.3886L18.8333 26.6214V25.9167V6.41667V6.06193L18.4985 5.94474L11.8318 3.6114L11.1667 3.37859V4.08333V23.5833V23.9381L11.5015 24.0553L18.1682 26.3886ZM21.1667 25.9167V26.6104L21.8248 26.391L26.8248 24.7243L27.1667 24.6104V24.25V4.5V3.77286L26.4877 4.03313L21.4877 5.94979L21.1667 6.07286V6.41667V25.9167ZM2.83333 25.5V26.2271L3.5123 25.9669L8.5123 24.0502L8.83333 23.9271V23.5833V4.08333V3.38962L8.17522 3.60899L3.17522 5.27566L2.83333 5.38962V5.75V25.5Z" fill="white" stroke="#274312"/>
</svg>
