<svg width="20" height="20" viewBox="0 0 20 20" fill="none" xmlns="http://www.w3.org/2000/svg">
<path d="M10.0002 0C6.73 0 4.05 2.672 4.05 5.9332C4.05 7.1968 4.4536 8.3712 5.1366 9.3364L9.274 16.489C9.8534 17.246 10.2386 17.1022 10.7204 16.449L15.284 8.683C15.376 8.5162 15.4484 8.3386 15.5114 8.1572C15.8009 7.45147 15.9498 6.696 15.9498 5.9332C15.95 2.672 13.2708 0 10.0002 0ZM10.0002 2.78C11.7614 2.78 13.1618 4.1772 13.1618 5.9332C13.1618 7.6892 11.7614 9.086 10.0002 9.086C8.2392 9.086 6.8382 7.6896 6.8382 5.9334C6.8382 4.1772 8.2392 2.7802 10 2.7802" fill="white"/>
<path d="M13.7826 9.78162L13.773 9.80682L13.7814 9.78382L13.7826 9.78162ZM6.8012 13.8114C3.976 14.2106 2 15.1656 2 16.5714C2 18.465 5.3016 20 10 20C14.6984 20 18 18.465 18 16.5714C18 15.1656 16.0242 14.2106 13.1992 13.8114L12.8078 14.4778C14.937 14.7732 16.4 15.394 16.4 16.1144C16.4 17.1244 13.5346 17.943 10 17.943C6.4654 17.943 3.6 17.1244 3.6 16.1144C3.5998 15.3964 5.0532 14.7762 7.189 14.4796L6.8012 13.8114Z" fill="white"/>
</svg>
