<svg width="26" height="31" viewBox="0 0 26 31" fill="none" xmlns="http://www.w3.org/2000/svg">
<mask id="path-1-inside-1_1_65" fill="white">
<path d="M13 0.5C10.9888 0.5 9.05993 1.29018 7.63777 2.6967C6.21562 4.10322 5.41667 6.01088 5.41667 8C5.41667 9.98912 6.21562 11.8968 7.63777 13.3033C9.05993 14.7098 10.9888 15.5 13 15.5C15.0112 15.5 16.9401 14.7098 18.3622 13.3033C19.7844 11.8968 20.5833 9.98912 20.5833 8C20.5833 6.01088 19.7844 4.10322 18.3622 2.6967C16.9401 1.29018 15.0112 0.5 13 0.5ZM6.5 8C6.5 6.29504 7.18482 4.6599 8.40381 3.45431C9.62279 2.24872 11.2761 1.57143 13 1.57143C14.7239 1.57143 16.3772 2.24872 17.5962 3.45431C18.8152 4.6599 19.5 6.29504 19.5 8C19.5 9.70496 18.8152 11.3401 17.5962 12.5457C16.3772 13.7513 14.7239 14.4286 13 14.4286C11.2761 14.4286 9.62279 13.7513 8.40381 12.5457C7.18482 11.3401 6.5 9.70496 6.5 8ZM3.79167 17.6429C2.78605 17.6429 1.82163 18.0379 1.11055 18.7412C0.399478 19.4445 0 20.3983 0 21.3929V22.1075C0 24.4111 2.9965 30.5 13 30.5C23.0035 30.5 26 24.41 26 22.1075V21.3929C26 20.3983 25.6005 19.4445 24.8894 18.7412C24.1784 18.0379 23.2139 17.6429 22.2083 17.6429H3.79167ZM1.08333 21.3929C1.08333 20.6825 1.36867 20.0012 1.87659 19.4988C2.3845 18.9965 3.07337 18.7143 3.79167 18.7143H22.2083C22.9266 18.7143 23.6155 18.9965 24.1234 19.4988C24.6313 20.0012 24.9167 20.6825 24.9167 21.3929V22.1075C24.9167 23.7329 22.4954 29.4286 13 29.4286C3.50458 29.4286 1.08333 23.7329 1.08333 22.1075V21.3929Z"/>
</mask>
<path d="M13 0.5C10.9888 0.5 9.05993 1.29018 7.63777 2.6967C6.21562 4.10322 5.41667 6.01088 5.41667 8C5.41667 9.98912 6.21562 11.8968 7.63777 13.3033C9.05993 14.7098 10.9888 15.5 13 15.5C15.0112 15.5 16.9401 14.7098 18.3622 13.3033C19.7844 11.8968 20.5833 9.98912 20.5833 8C20.5833 6.01088 19.7844 4.10322 18.3622 2.6967C16.9401 1.29018 15.0112 0.5 13 0.5ZM6.5 8C6.5 6.29504 7.18482 4.6599 8.40381 3.45431C9.62279 2.24872 11.2761 1.57143 13 1.57143C14.7239 1.57143 16.3772 2.24872 17.5962 3.45431C18.8152 4.6599 19.5 6.29504 19.5 8C19.5 9.70496 18.8152 11.3401 17.5962 12.5457C16.3772 13.7513 14.7239 14.4286 13 14.4286C11.2761 14.4286 9.62279 13.7513 8.40381 12.5457C7.18482 11.3401 6.5 9.70496 6.5 8ZM3.79167 17.6429C2.78605 17.6429 1.82163 18.0379 1.11055 18.7412C0.399478 19.4445 0 20.3983 0 21.3929V22.1075C0 24.4111 2.9965 30.5 13 30.5C23.0035 30.5 26 24.41 26 22.1075V21.3929C26 20.3983 25.6005 19.4445 24.8894 18.7412C24.1784 18.0379 23.2139 17.6429 22.2083 17.6429H3.79167ZM1.08333 21.3929C1.08333 20.6825 1.36867 20.0012 1.87659 19.4988C2.3845 18.9965 3.07337 18.7143 3.79167 18.7143H22.2083C22.9266 18.7143 23.6155 18.9965 24.1234 19.4988C24.6313 20.0012 24.9167 20.6825 24.9167 21.3929V22.1075C24.9167 23.7329 22.4954 29.4286 13 29.4286C3.50458 29.4286 1.08333 23.7329 1.08333 22.1075V21.3929Z" fill="#274312"/>
<path d="M5.41667 8H3.91667H5.41667ZM13 15.5V17V15.5ZM13 1.57143V0.0714285V1.57143ZM19.5 8H21H19.5ZM0 21.3929H-1.5H0ZM26 21.3929H24.5H26ZM1.08333 21.3929H-0.416667H1.08333ZM3.79167 18.7143V17.2143V18.7143ZM13 -1C10.5963 -1 8.28769 -0.0557694 6.58299 1.6302L8.69256 3.7632C9.83216 2.63612 11.3813 2 13 2V-1ZM6.58299 1.6302C4.87773 3.31671 3.91667 5.60767 3.91667 8H6.91667C6.91667 6.41408 7.55351 4.88973 8.69256 3.7632L6.58299 1.6302ZM3.91667 8C3.91667 10.3923 4.87773 12.6833 6.58299 14.3698L8.69256 12.2368C7.55351 11.1103 6.91667 9.58592 6.91667 8H3.91667ZM6.58299 14.3698C8.28769 16.0558 10.5963 17 13 17V14C11.3813 14 9.83216 13.3639 8.69256 12.2368L6.58299 14.3698ZM13 17C15.4037 17 17.7123 16.0558 19.417 14.3698L17.3074 12.2368C16.1678 13.3639 14.6187 14 13 14V17ZM19.417 14.3698C21.1223 12.6833 22.0833 10.3923 22.0833 8H19.0833C19.0833 9.58592 18.4465 11.1103 17.3074 12.2368L19.417 14.3698ZM22.0833 8C22.0833 5.60767 21.1223 3.31671 19.417 1.6302L17.3074 3.7632C18.4465 4.88973 19.0833 6.41408 19.0833 8H22.0833ZM19.417 1.6302C17.7123 -0.0557695 15.4037 -1 13 -1V2C14.6187 2 16.1678 2.63612 17.3074 3.7632L19.417 1.6302ZM8 8C8 6.69824 8.52271 5.44641 9.45859 4.52082L7.34902 2.38781C5.84693 3.8734 5 5.89183 5 8H8ZM9.45859 4.52082C10.395 3.59467 11.6686 3.07143 13 3.07143V0.0714285C10.8836 0.0714285 8.85056 0.902777 7.34902 2.38781L9.45859 4.52082ZM13 3.07143C14.3314 3.07143 15.605 3.59467 16.5414 4.52082L18.651 2.38781C17.1494 0.902777 15.1164 0.0714285 13 0.0714285V3.07143ZM16.5414 4.52082C17.4773 5.44641 18 6.69824 18 8H21C21 5.89183 20.1531 3.8734 18.651 2.38781L16.5414 4.52082ZM18 8C18 9.30176 17.4773 10.5536 16.5414 11.4792L18.651 13.6122C20.1531 12.1266 21 10.1082 21 8H18ZM16.5414 11.4792C15.605 12.4053 14.3314 12.9286 13 12.9286V15.9286C15.1164 15.9286 17.1494 15.0972 18.651 13.6122L16.5414 11.4792ZM13 12.9286C11.6686 12.9286 10.395 12.4053 9.45859 11.4792L7.34902 13.6122C8.85056 15.0972 10.8836 15.9286 13 15.9286V12.9286ZM9.45859 11.4792C8.52271 10.5536 8 9.30176 8 8H5C5 10.1082 5.84693 12.1266 7.34902 13.6122L9.45859 11.4792ZM3.79167 16.1429C2.39355 16.1429 1.04939 16.692 0.0557697 17.6747L2.16534 19.8077C2.59387 19.3839 3.17856 19.1429 3.79167 19.1429V16.1429ZM0.0557697 17.6747C-0.938413 18.658 -1.5 19.9951 -1.5 21.3929H1.5C1.5 20.8015 1.73737 20.231 2.16534 19.8077L0.0557697 17.6747ZM-1.5 21.3929V22.1075H1.5V21.3929H-1.5ZM-1.5 22.1075C-1.5 25.3764 2.31199 32 13 32V29C3.68101 29 1.5 23.4457 1.5 22.1075H-1.5ZM13 32C23.6881 32 27.5 25.3753 27.5 22.1075H24.5C24.5 23.4447 22.3189 29 13 29V32ZM27.5 22.1075V21.3929H24.5V22.1075H27.5ZM27.5 21.3929C27.5 19.9951 26.9384 18.658 25.9442 17.6747L23.8347 19.8077C24.2626 20.231 24.5 20.8015 24.5 21.3929H27.5ZM25.9442 17.6747C24.9506 16.692 23.6065 16.1429 22.2083 16.1429V19.1429C22.8214 19.1429 23.4061 19.3839 23.8347 19.8077L25.9442 17.6747ZM22.2083 16.1429H3.79167V19.1429H22.2083V16.1429ZM2.58333 21.3929C2.58333 21.0857 2.70657 20.7877 2.93137 20.5653L0.821802 18.4323C0.0307836 19.2146 -0.416667 20.2792 -0.416667 21.3929H2.58333ZM2.93137 20.5653C3.15674 20.3424 3.46588 20.2143 3.79167 20.2143V17.2143C2.68086 17.2143 1.61226 17.6505 0.821802 18.4323L2.93137 20.5653ZM3.79167 20.2143H22.2083V17.2143H3.79167V20.2143ZM22.2083 20.2143C22.5341 20.2143 22.8433 20.3424 23.0686 20.5653L25.1782 18.4323C24.3877 17.6505 23.3191 17.2143 22.2083 17.2143V20.2143ZM23.0686 20.5653C23.2934 20.7877 23.4167 21.0857 23.4167 21.3929H26.4167C26.4167 20.2792 25.9692 19.2146 25.1782 18.4323L23.0686 20.5653ZM23.4167 21.3929V22.1075H26.4167V21.3929H23.4167ZM23.4167 22.1075C23.4167 22.7713 21.8067 27.9286 13 27.9286V30.9286C23.1841 30.9286 26.4167 24.6944 26.4167 22.1075H23.4167ZM13 27.9286C4.19327 27.9286 2.58333 22.7713 2.58333 22.1075H-0.416667C-0.416667 24.6944 2.81589 30.9286 13 30.9286V27.9286ZM2.58333 22.1075V21.3929H-0.416667V22.1075H2.58333Z" fill="#274312" mask="url(#path-1-inside-1_1_65)"/>
</svg>
