<svg width="31" height="31" viewBox="0 0 31 31" fill="none" xmlns="http://www.w3.org/2000/svg">
<path d="M23.9329 21.7963L23.6578 22.1452L23.972 22.4594L29.7023 28.1895C29.8955 28.391 30.0024 28.6601 30 28.9393C29.9975 29.2199 29.885 29.4882 29.6866 29.6866C29.4882 29.885 29.2198 29.9975 28.9393 30C28.66 30.0024 28.3909 29.8955 28.1894 29.7024L22.4591 23.9722L22.145 23.6581L21.7961 23.9331C20.1873 25.2009 18.2987 26.0656 16.2878 26.455C14.2768 26.8445 12.2019 26.7475 10.2361 26.172C8.27035 25.5965 6.4707 24.5593 4.98732 23.1469C3.50394 21.7344 2.37985 19.9878 1.70883 18.0526C1.03782 16.1174 0.839335 14.0498 1.12994 12.0223C1.42055 9.99484 2.19181 8.06624 3.3794 6.39743C4.56699 4.72862 6.13645 3.368 7.95686 2.42908C9.77726 1.49016 11.7958 1.00017 13.8441 1C16.2559 0.999838 18.6191 1.67867 20.6631 2.95879C22.7071 4.23892 24.3494 6.06863 25.4021 8.23851C26.4548 10.4084 26.8752 12.8308 26.6154 15.2285C26.3556 17.6262 25.4259 19.9023 23.9329 21.7963ZM13.8441 3.13993C11.0049 3.13993 8.28199 4.26775 6.27439 6.27528C4.26678 8.28281 3.13891 11.0056 3.13891 13.8447C3.13891 16.6838 4.26678 19.4066 6.27439 21.4141C8.28199 23.4217 11.0049 24.5495 13.8441 24.5495C16.6832 24.5495 19.4061 23.4217 21.4138 21.4141C23.4214 19.4066 24.5492 16.6838 24.5492 13.8447C24.5492 11.0056 23.4214 8.28281 21.4138 6.27528C19.4061 4.26775 16.6832 3.13993 13.8441 3.13993Z" fill="#274312" stroke="white"/>
</svg>
