<svg width="16" height="15" viewBox="0 0 16 15" fill="none" xmlns="http://www.w3.org/2000/svg">
<path d="M14.52 7.49972H5.86482M2.80976 7.49972H1.56M2.80976 7.49972C2.80976 7.1089 2.97066 6.73408 3.25706 6.45773C3.54346 6.18138 3.93191 6.02613 4.33694 6.02613C4.74197 6.02613 5.13042 6.18138 5.41682 6.45773C5.70322 6.73408 5.86412 7.1089 5.86412 7.49972C5.86412 7.89054 5.70322 8.26535 5.41682 8.54171C5.13042 8.81806 4.74197 8.97331 4.33694 8.97331C3.93191 8.97331 3.54346 8.81806 3.25706 8.54171C2.97066 8.26535 2.80976 7.89054 2.80976 7.49972ZM14.52 11.9658H10.4933M10.4933 11.9658C10.4933 12.3567 10.332 12.7319 10.0455 13.0084C9.75907 13.2848 9.37054 13.4401 8.96541 13.4401C8.56038 13.4401 8.17194 13.2841 7.88553 13.0078C7.59913 12.7314 7.43823 12.3566 7.43823 11.9658M10.4933 11.9658C10.4933 11.5749 10.332 11.2003 10.0455 10.9239C9.75907 10.6475 9.37054 10.4922 8.96541 10.4922C8.56038 10.4922 8.17194 10.6474 7.88553 10.9238C7.59913 11.2002 7.43823 11.575 7.43823 11.9658M7.43823 11.9658H1.56M14.52 3.03365H12.3448M9.28976 3.03365H1.56M9.28976 3.03365C9.28976 2.64283 9.45066 2.26802 9.73706 1.99166C10.0235 1.71531 10.4119 1.56006 10.8169 1.56006C11.0175 1.56006 11.2161 1.59817 11.4014 1.67223C11.5867 1.74628 11.755 1.85483 11.8968 1.99166C12.0386 2.1285 12.1511 2.29095 12.2279 2.46973C12.3046 2.64852 12.3441 2.84014 12.3441 3.03365C12.3441 3.22717 12.3046 3.41879 12.2279 3.59757C12.1511 3.77636 12.0386 3.9388 11.8968 4.07564C11.755 4.21247 11.5867 4.32102 11.4014 4.39507C11.2161 4.46913 11.0175 4.50724 10.8169 4.50724C10.4119 4.50724 10.0235 4.35199 9.73706 4.07564C9.45066 3.79929 9.28976 3.42447 9.28976 3.03365Z" stroke="#274312" stroke-width="1.5" stroke-miterlimit="10" stroke-linecap="round"/>
</svg>
