<svg width="30" height="31" viewBox="0 0 30 31" fill="none" xmlns="http://www.w3.org/2000/svg">
<path d="M16.875 18.3125V23.9375C16.875 24.1861 16.9738 24.4246 17.1496 24.6004C17.3254 24.7762 17.5639 24.875 17.8125 24.875H23.4375C23.6861 24.875 23.9246 24.7762 24.1004 24.6004C24.2762 24.4246 24.375 24.1861 24.375 23.9375V18.3125C24.375 18.0639 24.2762 17.8254 24.1004 17.6496C23.9246 17.4738 23.6861 17.375 23.4375 17.375H17.8125C17.5639 17.375 17.3254 17.4738 17.1496 17.6496C16.9738 17.8254 16.875 18.0639 16.875 18.3125ZM18 23.9375V18.5H23.4375L23.5 24L18 23.9375ZM5.625 0.5C5.48759 0.500052 5.35187 0.53031 5.22744 0.588632C5.10302 0.646955 4.99294 0.731916 4.905 0.8375L0.2175 6.4625C0.0770609 6.63091 9.86688e-05 6.84322 0 7.0625V9.875C0 11.54 0.72375 13.0381 1.875 14.0675V29.5625C1.875 29.8111 1.97377 30.0496 2.14959 30.2254C2.3254 30.4012 2.56386 30.5 2.8125 30.5H27.1875C27.4361 30.5 27.6746 30.4012 27.8504 30.2254C28.0262 30.0496 28.125 29.8111 28.125 29.5625V14.0675C29.2763 13.0363 30 11.54 30 9.875V7.02875C30 6.86 30 6.725 29.7825 6.4625L25.095 0.8375C25.0071 0.731916 24.897 0.646955 24.7726 0.588632C24.6481 0.53031 24.5124 0.500052 24.375 0.5H5.625ZM5.625 13.625C4.63044 13.625 3.67661 13.2299 2.97335 12.5266C2.27009 11.8234 1.875 10.8696 1.875 9.875V7.4375H9.375V9.875C9.375 10.8696 8.97991 11.8234 8.27665 12.5266C7.57339 13.2299 6.61956 13.625 5.625 13.625ZM15 13.625C14.0054 13.625 13.0516 13.2299 12.3483 12.5266C11.6451 11.8234 11.25 10.8696 11.25 9.875V7.73047H18.75V9.875C18.75 10.8696 18.3549 11.8234 17.6516 12.5266C16.9484 13.2299 15.9946 13.625 15 13.625ZM24.375 13.625C23.3804 13.625 22.4266 13.2299 21.7234 12.5266C21.0201 11.8234 20.625 10.8696 20.625 9.875V7.73047H28.125V9.875C28.125 10.8696 27.7299 11.8234 27.0266 12.5266C26.3234 13.2299 25.3696 13.625 24.375 13.625ZM5.625 29.5625H2.8125L2.97335 14.5C4.15525 14.9179 6.31106 15.2302 7.5 14.8327C8.68893 14.4353 9.807 13.5713 10.5 12.5266C11.0135 13.2996 11.5227 14.3944 12.3406 14.8327C13.1584 15.2711 14.072 15.5003 15 15.5C15.9281 15.5001 16.8419 15.2706 17.6597 14.8319C18.4776 14.3932 19.4868 13.2733 20 12.5C20.693 13.5446 21.8111 14.6026 23 15C24.1889 15.3974 25.8447 15.2498 27.0266 14.8319V29.5H15V18.3125C15 18.0639 14.9012 17.8254 14.7254 17.6496C14.5496 17.4738 14.3111 17.375 14.0625 17.375H6.5625C6.31386 17.375 6.0754 17.4738 5.89959 17.6496C5.72377 17.8254 5.625 18.0639 5.625 18.3125V29.5625ZM10 6.5H2L6 1.5L11.9722 1.4375L10 6.5ZM18.75 6.5H11.25L13 1.5H17.8125L18.75 6.5ZM20 6.5L19.1897 1.5H24.375L27.6897 6.4625L20 6.5ZM6.5625 29.5625V18.192H14V29.5L6.5625 29.5625Z" fill="#274312"/>
</svg>
