<svg width="23" height="22" viewBox="0 0 23 22" fill="none" xmlns="http://www.w3.org/2000/svg">
<path d="M23 0.5H7.07711C5.66944 0.5 4.31942 1.05307 3.32405 2.03754C2.32867 3.02201 1.76948 4.35724 1.76948 5.7495V14.2887C0.891561 14.8688 0.282598 15.7701 0.076556 16.7942C-0.129486 17.8184 0.0842689 18.8816 0.670799 19.7499C1.25733 20.6182 2.16859 21.2205 3.20411 21.4243C4.23963 21.6281 5.31459 21.4167 6.1925 20.8365C6.89849 21.3026 7.73661 21.5333 8.58451 21.4949C9.43242 21.4564 10.2457 21.151 10.9057 20.6231H11.5302C12.2033 21.0418 12.957 21.3178 13.7435 21.4338C14.53 21.5497 15.3322 21.5031 16.0996 21.2968C16.8669 21.0905 17.5826 20.729 18.2015 20.2352C18.8204 19.7414 19.3291 19.126 19.6952 18.4278C20.0614 17.7297 20.2772 16.964 20.329 16.1792C20.3808 15.3944 20.2674 14.6075 19.996 13.8683C19.7247 13.129 19.3012 12.4534 18.7524 11.8843C18.2037 11.3151 17.5415 10.8647 16.8078 10.5615V7.49933C16.8078 6.57116 17.1806 5.68101 17.8441 5.02469C18.5077 4.36838 19.4077 3.99966 20.3462 3.99966H23V0.5ZM18.577 15.811C18.5769 16.5542 18.3642 17.2822 17.9633 17.9109C17.5625 18.5395 16.9899 19.0431 16.3119 19.3634C15.6338 19.6837 14.8779 19.8077 14.1316 19.7209C13.3853 19.6342 12.6791 19.3403 12.0946 18.8732H10.1732C9.96767 19.1455 9.7007 19.3666 9.39357 19.5189C9.08643 19.6712 8.74759 19.7505 8.40402 19.7505C8.06044 19.7505 7.72161 19.6712 7.41447 19.5189C7.10733 19.3666 6.84036 19.1455 6.63481 18.8732H5.7502C5.53527 19.1565 5.254 19.3839 4.93058 19.5359C4.60717 19.6879 4.25126 19.76 3.89347 19.7459C3.53567 19.7318 3.18668 19.632 2.8765 19.4551C2.56631 19.2781 2.30421 19.0294 2.11271 18.7301C1.92121 18.4308 1.80604 18.0901 1.77711 17.7371C1.74818 17.3841 1.80634 17.0294 1.94661 16.7035C2.08687 16.3777 2.30504 16.0904 2.58236 15.8664C2.85968 15.6423 3.18786 15.4882 3.53869 15.4173V8.8117C3.53869 8.46364 3.67849 8.12983 3.92733 7.88371C4.17617 7.6376 4.51368 7.49933 4.8656 7.49933C5.21751 7.49933 5.55502 7.6376 5.80386 7.88371C6.0527 8.12983 6.1925 8.46364 6.1925 8.8117V14.4987C6.1925 14.7307 6.2857 14.9532 6.4516 15.1173C6.61749 15.2814 6.8425 15.3736 7.07711 15.3736C7.31172 15.3736 7.53672 15.2814 7.70262 15.1173C7.86851 14.9532 7.96171 14.7307 7.96171 14.4987V10.5615C7.96171 10.2135 8.10151 9.87966 8.35036 9.63355C8.5992 9.38743 8.9367 9.24916 9.28862 9.24916C9.64054 9.24916 9.97804 9.38743 10.2269 9.63355C10.4757 9.87966 10.6155 10.2135 10.6155 10.5615V14.4987C10.6155 14.7307 10.7087 14.9532 10.8746 15.1173C11.0405 15.2814 11.2655 15.3736 11.5001 15.3736C11.7347 15.3736 11.9597 15.2814 12.1256 15.1173C12.2915 14.9532 12.3847 14.7307 12.3847 14.4987V8.8117C12.3847 8.46364 12.5245 8.12983 12.7734 7.88371C13.0222 7.6376 13.3597 7.49933 13.7116 7.49933C14.0636 7.49933 14.4011 7.6376 14.6499 7.88371C14.8988 8.12983 15.0386 8.46364 15.0386 8.8117V11.8984C16.0116 12.006 16.9105 12.4645 17.5633 13.1864C18.216 13.9082 18.5769 14.8426 18.577 15.811Z" fill="#274312"/>
</svg>
